<svg width="52" height="60" viewBox="0 0 52 60" fill="none" xmlns="http://www.w3.org/2000/svg">
<path d="M25.84 1.90735e-06L-1.52588e-05 14.92V44.75L25.84 59.66L51.66 44.75V14.92L25.84 1.90735e-06ZM44.01 40.33L25.84 50.82L7.65999 40.33V19.33L25.84 8.84L44.01 19.33V40.33Z" fill="#002D74"/>
<path style="mix-blend-mode:multiply" d="M25.84 59.66L51.66 44.75V14.92L25.84 1.90735e-06V8.84999L44.01 19.34V40.34L25.84 50.82V59.66Z" fill="url(#paint0_linear)"/>
<path style="mix-blend-mode:multiply" d="M25.82 0L0 14.91L0 44.74L25.82 59.66V50.81L7.64999 40.32V19.32L25.82 8.84V0Z" fill="url(#paint1_linear)"/>
<path d="M37.89 36.8L25.83 43.76L13.76 36.8V22.87L25.83 15.9L37.89 22.87L32.87 25.77L25.83 21.7L18.79 25.77V33.89L25.83 37.96L32.87 33.89L37.89 36.8Z" fill="#002D74"/>
<defs>
<linearGradient id="paint0_linear" x1="38.75" y1="59.66" x2="38.75" y2="29.83" gradientUnits="userSpaceOnUse">
<stop stop-color="#002D74"/>
<stop offset="1" stop-color="#002D74" stop-opacity="0"/>
</linearGradient>
<linearGradient id="paint1_linear" x1="12.91" y1="0" x2="12.91" y2="29.83" gradientUnits="userSpaceOnUse">
<stop stop-color="#002D74"/>
<stop offset="1" stop-color="#002D74" stop-opacity="0"/>
</linearGradient>
</defs>
</svg>
