<?xml version="1.0" encoding="UTF-8" standalone="no"?>
<svg
   width="256"
   height="256"
   viewBox="0 0 256 256"
   fill="none"
   version="1.1"
   id="svg10"
   sodipodi:docname="Sui SUI Coin Icon 256x256.svg"
   inkscape:version="1.2 (dc2aedaf03, 2022-05-15)"
   xmlns:inkscape="http://www.inkscape.org/namespaces/inkscape"
   xmlns:sodipodi="http://sodipodi.sourceforge.net/DTD/sodipodi-0.dtd"
   xmlns="http://www.w3.org/2000/svg"
   xmlns:svg="http://www.w3.org/2000/svg">
  <defs
     id="defs14" />
  <sodipodi:namedview
     id="namedview12"
     pagecolor="#ffffff"
     bordercolor="#666666"
     borderopacity="1.0"
     inkscape:showpageshadow="2"
     inkscape:pageopacity="0.0"
     inkscape:pagecheckerboard="0"
     inkscape:deskcolor="#d1d1d1"
     showgrid="false"
     inkscape:zoom="0.81944445"
     inkscape:cx="48.20339"
     inkscape:cy="122.0339"
     inkscape:window-width="1366"
     inkscape:window-height="705"
     inkscape:window-x="-8"
     inkscape:window-y="-8"
     inkscape:window-maximized="1"
     inkscape:current-layer="svg10" />
  <circle
     style="fill:#6fbcf0;fill-opacity:1;stroke:none;stroke-width:5"
     id="path1579"
     cx="128"
     cy="128"
     r="128" />
  <path
     fill-rule="evenodd"
     clip-rule="evenodd"
     d="m 66.559278,194.62394 c 12.823693,22.21372 35.793202,35.47345 61.440592,35.47345 25.6475,0 48.61241,-13.25973 61.44081,-35.47345 12.82376,-22.20964 12.82376,-48.7291 0,-70.94281 L 135.40211,30.085607 c -3.28982,-5.698258 -11.51467,-5.698246 -14.8045,1.1e-5 L 66.559278,123.68113 c -12.823685,22.20906 -12.823685,48.7291 0,70.94281 z M 112.77727,74.613065 124.29845,54.657004 c 1.64521,-2.849205 5.75763,-2.849205 7.40283,0 l 44.32351,76.772366 c 8.14358,14.10438 9.67209,30.42812 4.58555,45.36555 -0.52943,-2.43703 -1.26959,-4.93038 -2.26752,-7.44927 -6.12219,-15.45062 -19.96593,-27.3734 -41.15328,-35.43977 -14.56706,-5.52541 -23.86518,-13.65215 -27.64345,-24.15556 -4.86647,-13.537792 0.21647,-28.300436 3.23118,-35.137255 z M 93.131151,108.64153 79.974699,131.42937 c -10.024819,17.36345 -10.024819,38.09102 0,55.45446 10.024878,17.36345 27.975461,27.7252 48.025171,27.7252 13.31662,0 25.71078,-4.5751 35.46996,-12.73551 1.27307,-3.20449 5.21425,-14.93396 0.34482,-27.02335 -4.49731,-11.16346 -15.32058,-20.07507 -32.17084,-26.49391 -19.04737,-7.22519 -31.42197,-18.50475 -36.773006,-33.51591 -0.737031,-2.06666 -1.309659,-4.13797 -1.739653,-6.19882 z"
     fill="#1d2947"
     id="path8"
     style="fill:#ffffff;stroke:#ffffff;stroke-width:5.80523;stroke-opacity:0" />
</svg>
